<?xml version="1.0" encoding="UTF-8" standalone="no"?>
<!DOCTYPE svg PUBLIC "-//W3C//DTD SVG 1.1//EN"
"http://www.w3.org/Graphics/SVG/1.1/DTD/svg11.dtd">


<!-- Page 1 -->
<svg x="0" y="0" width="343" height="227" viewBox="0 0 343 227" version="1.1" xmlns="http://www.w3.org/2000/svg" xmlns:xlink="http://www.w3.org/1999/xlink"
style="display: block;margin-left: auto;margin-right: auto;">
<defs>

<style type="text/css"><![CDATA[

.g0_1{
fill: none;
stroke: #93A1A1;
stroke-width: 2.1653347;
stroke-linecap: butt;
stroke-linejoin: miter;
}
.g1_1{
fill: #073642;
}
.g2_1{
fill: none;
stroke: #073642;
stroke-width: 0.6088194;
stroke-linecap: butt;
stroke-linejoin: miter;
}
.g3_1{
fill: #D33682;
}
.g4_1{
fill: none;
stroke: #D33682;
stroke-width: 0.6088194;
stroke-linecap: butt;
stroke-linejoin: miter;
}
.g5_1{
fill: none;
stroke: #859900;
stroke-width: 2.1653347;
stroke-linecap: butt;
stroke-linejoin: miter;
}
.g6_1{
fill: none;
stroke: #859900;
stroke-width: 1.5049449;
stroke-linecap: round;
stroke-linejoin: round;
}
.g7_1{
fill: none;
stroke: #268BD2;
stroke-width: 2.1653347;
stroke-linecap: butt;
stroke-linejoin: miter;
}
.g8_1{
fill: none;
stroke: #268BD2;
stroke-width: 1.5049449;
stroke-linecap: round;
stroke-linejoin: round;
}
.g9_1{
fill: none;
stroke: #2AA198;
stroke-width: 2.1653347;
stroke-linecap: butt;
stroke-linejoin: miter;
}
.g10_1{
fill: none;
stroke: #2AA198;
stroke-width: 1.7322708;
stroke-linecap: round;
stroke-linejoin: round;
}
.g11_1{
fill: none;
stroke: #6C71C4;
stroke-width: 0.6088194;
stroke-linecap: butt;
stroke-linejoin: miter;
}

]]></style>

</defs>
<path d="M0,0
L0,227
L343,227
L343,0 Z " 
fill="#FFFFFF" stroke="none" />
<path d="M38.6,221.2L76.1,199.5M38.6,221.2L1.1,199.5m75,0V156.2" class="g0_1" />
<path d="M42.9,221.2c0,-2.4,-1.9,-4.4,-4.3,-4.4c-2.4,0,-4.3,2,-4.3,4.4c0,2.4,1.9,4.3,4.3,4.3c2.4,0,4.3,-1.9,4.3,-4.3Z" class="g1_1" />
<path d="M80.4,199.5c0,-2.4,-1.9,-4.3,-4.3,-4.3c-2.4,0,-4.3,1.9,-4.3,4.3c0,2.4,1.9,4.3,4.3,4.3c2.4,0,4.3,-1.9,4.3,-4.3Z" class="g2_1" />
<path d="M76.1,156.2l37.5,-21.6M76.1,156.2L38.6,134.6m75,0V91.2" class="g0_1" />
<path d="M80.4,156.2c0,-2.4,-1.9,-4.3,-4.3,-4.3c-2.4,0,-4.3,1.9,-4.3,4.3c0,2.4,1.9,4.3,4.3,4.3c2.4,0,4.3,-1.9,4.3,-4.3Z" class="g1_1" />
<path d="M117.9,134.6c0,-2.4,-1.9,-4.4,-4.3,-4.4c-2.4,0,-4.3,2,-4.3,4.4c0,2.3,1.9,4.3,4.3,4.3c2.4,0,4.3,-2,4.3,-4.3Z" class="g2_1" />
<path d="M113.6,91.2L151.1,69.6M113.6,91.2L76.1,69.6m75,0V26.3" class="g0_1" />
<path d="M117.9,91.2c0,-2.3,-1.9,-4.3,-4.3,-4.3c-2.4,0,-4.3,2,-4.3,4.3c0,2.4,1.9,4.4,4.3,4.4c2.4,0,4.3,-2,4.3,-4.4Z" class="g1_1" />
<path d="M155.4,69.6c0,-2.4,-1.9,-4.3,-4.3,-4.3c-2.4,0,-4.3,1.9,-4.3,4.3c0,2.4,1.9,4.3,4.3,4.3c2.4,0,4.3,-1.9,4.3,-4.3Z" class="g2_1" />
<path d="M151.1,26.3L188.6,4.6M151.1,26.3L113.6,4.6" class="g0_1" />
<path d="M155.4,26.3c0,-2.4,-1.9,-4.3,-4.3,-4.3c-2.4,0,-4.3,1.9,-4.3,4.3c0,2.4,1.9,4.3,4.3,4.3c2.4,0,4.3,-1.9,4.3,-4.3Z" class="g1_1" />
<path d="M192.9,4.6C192.9,2.2,191,.3,188.6,.3c-2.4,0,-4.3,1.9,-4.3,4.3c0,2.4,1.9,4.4,4.3,4.4c2.4,0,4.3,-2,4.3,-4.4Z" class="g2_1" />
<path d="M113.6,221.2l37.5,-21.7m-37.5,21.7L76.1,199.5m75,0V156.2" class="g0_1" />
<path d="M117.9,221.2c0,-2.4,-1.9,-4.4,-4.3,-4.4c-2.4,0,-4.3,2,-4.3,4.4c0,2.4,1.9,4.3,4.3,4.3c2.4,0,4.3,-1.9,4.3,-4.3Z" class="g1_1" />
<path d="M155.4,199.5c0,-2.4,-1.9,-4.3,-4.3,-4.3c-2.4,0,-4.3,1.9,-4.3,4.3c0,2.4,1.9,4.3,4.3,4.3c2.4,0,4.3,-1.9,4.3,-4.3Z" class="g2_1" />
<path d="M151.1,156.2l37.5,-21.6m-37.5,21.6L113.6,134.6m75,0V91.2" class="g0_1" />
<path d="M155.4,156.2c0,-2.4,-1.9,-4.3,-4.3,-4.3c-2.4,0,-4.3,1.9,-4.3,4.3c0,2.4,1.9,4.3,4.3,4.3c2.4,0,4.3,-1.9,4.3,-4.3Z" class="g1_1" />
<path d="M192.9,134.6c0,-2.4,-1.9,-4.4,-4.3,-4.4c-2.4,0,-4.3,2,-4.3,4.4c0,2.3,1.9,4.3,4.3,4.3c2.4,0,4.3,-2,4.3,-4.3Z" class="g2_1" />
<path d="M188.6,91.2L226.1,69.6M188.6,91.2L151.1,69.6m75,0V26.3" class="g0_1" />
<path d="M192.9,91.2c0,-2.3,-1.9,-4.3,-4.3,-4.3c-2.4,0,-4.3,2,-4.3,4.3c0,2.4,1.9,4.4,4.3,4.4c2.4,0,4.3,-2,4.3,-4.4Z" class="g1_1" />
<path d="M230.4,69.6c0,-2.4,-1.9,-4.3,-4.3,-4.3c-2.4,0,-4.3,1.9,-4.3,4.3c0,2.4,1.9,4.3,4.3,4.3c2.4,0,4.3,-1.9,4.3,-4.3Z" class="g2_1" />
<path d="M226.1,26.3L263.6,4.6M226.1,26.3L188.6,4.6" class="g0_1" />
<path d="M230.4,26.3c0,-2.4,-1.9,-4.3,-4.3,-4.3c-2.4,0,-4.3,1.9,-4.3,4.3c0,2.4,1.9,4.3,4.3,4.3c2.4,0,4.3,-1.9,4.3,-4.3Z" class="g1_1" />
<path d="M267.9,4.6C267.9,2.2,266,.3,263.6,.3c-2.4,0,-4.3,1.9,-4.3,4.3c0,2.4,1.9,4.4,4.3,4.4c2.4,0,4.3,-2,4.3,-4.4Z" class="g2_1" />
<path d="M188.6,221.2l37.5,-21.7m-37.5,21.7L151.1,199.5m75,0V156.2" class="g0_1" />
<path d="M192.9,221.2c0,-2.4,-1.9,-4.4,-4.3,-4.4c-2.4,0,-4.3,2,-4.3,4.4c0,2.4,1.9,4.3,4.3,4.3c2.4,0,4.3,-1.9,4.3,-4.3Z" class="g1_1" />
<path d="M230.4,199.5c0,-2.4,-1.9,-4.3,-4.3,-4.3c-2.4,0,-4.3,1.9,-4.3,4.3c0,2.4,1.9,4.3,4.3,4.3c2.4,0,4.3,-1.9,4.3,-4.3Z" class="g2_1" />
<path d="M226.1,156.2l37.5,-21.6m-37.5,21.6L188.6,134.6m75,0V91.2" class="g0_1" />
<path d="M230.4,156.2c0,-2.4,-1.9,-4.3,-4.3,-4.3c-2.4,0,-4.3,1.9,-4.3,4.3c0,2.4,1.9,4.3,4.3,4.3c2.4,0,4.3,-1.9,4.3,-4.3Z" class="g1_1" />
<path d="M267.9,134.6c0,-2.4,-1.9,-4.4,-4.3,-4.4c-2.4,0,-4.3,2,-4.3,4.4c0,2.3,1.9,4.3,4.3,4.3c2.4,0,4.3,-2,4.3,-4.3Z" class="g2_1" />
<path d="M263.6,91.2L301.1,69.6M263.6,91.2L226.1,69.6m75,0V26.3" class="g0_1" />
<path d="M267.9,91.2c0,-2.3,-1.9,-4.3,-4.3,-4.3c-2.4,0,-4.3,2,-4.3,4.3c0,2.4,1.9,4.4,4.3,4.4c2.4,0,4.3,-2,4.3,-4.4Z" class="g1_1" />
<path d="M305.4,69.6c0,-2.4,-1.9,-4.3,-4.3,-4.3c-2.4,0,-4.3,1.9,-4.3,4.3c0,2.4,1.9,4.3,4.3,4.3c2.4,0,4.3,-1.9,4.3,-4.3Z" class="g2_1" />
<path d="M301.1,26.3L338.6,4.6M301.1,26.3L263.6,4.6" class="g0_1" />
<path d="M305.4,26.3c0,-2.4,-1.9,-4.3,-4.3,-4.3c-2.4,0,-4.3,1.9,-4.3,4.3c0,2.4,1.9,4.3,4.3,4.3c2.4,0,4.3,-1.9,4.3,-4.3Z" class="g1_1" />
<path d="M343,4.6C343,2.2,341,.3,338.6,.3c-2.4,0,-4.3,1.9,-4.3,4.3c0,2.4,1.9,4.4,4.3,4.4C341,9,343,7,343,4.6Z" class="g2_1" />
<path d="M230.4,26.3c0,-2.4,-1.9,-4.3,-4.3,-4.3c-2.4,0,-4.3,1.9,-4.3,4.3c0,2.4,1.9,4.3,4.3,4.3c2.4,0,4.3,-1.9,4.3,-4.3Z" class="g3_1" />
<path d="M267.9,4.6C267.9,2.2,266,.3,263.6,.3c-2.4,0,-4.3,1.9,-4.3,4.3c0,2.4,1.9,4.4,4.3,4.4c2.4,0,4.3,-2,4.3,-4.4Z" class="g4_1" />
<path d="M117.9,221.2c0,-2.4,-1.9,-4.4,-4.3,-4.4c-2.4,0,-4.3,2,-4.3,4.4c0,2.4,1.9,4.3,4.3,4.3c2.4,0,4.3,-1.9,4.3,-4.3Z" class="g3_1" />
<path d="M155.4,199.5c0,-2.4,-1.9,-4.3,-4.3,-4.3c-2.4,0,-4.3,1.9,-4.3,4.3c0,2.4,1.9,4.3,4.3,4.3c2.4,0,4.3,-1.9,4.3,-4.3Z" class="g4_1" />
<path d="M113.6,221.2l36,-20.8" class="g5_1" />
<path d="M144.7,198.2c1,1.3,4.8,1.9,5.6,1.8c-.5,.6,-1.9,4.2,-1.3,5.7" class="g6_1" />
<path d="M188.6,221.2l-36,-20.8" class="g7_1" />
<path d="M153.2,205.7c.6,-1.5,-.8,-5.1,-1.3,-5.7c.8,.1,4.6,-.5,5.6,-1.8" class="g8_1" />
<path d="M113.6,221.2L77.5,200.4" class="g7_1" />
<path d="M78.2,205.7c.6,-1.5,-.8,-5.1,-1.4,-5.7c.9,.1,4.7,-.5,5.7,-1.8" class="g8_1" />
<path d="M151.1,156.2v41.6" class="g9_1" />
<path d="M155.4,194.6c-1.6,.3,-4,3.2,-4.3,4.1c-.3,-.9,-2.7,-3.8,-4.3,-4.1" class="g10_1" />
<path d="M155.4,156.2c0,-2.4,-1.9,-4.3,-4.3,-4.3c-2.4,0,-4.3,1.9,-4.3,4.3c0,2.4,1.9,4.3,4.3,4.3c2.4,0,4.3,-1.9,4.3,-4.3Z" class="g3_1" />
<path d="M192.9,134.6c0,-2.4,-1.9,-4.4,-4.3,-4.4c-2.4,0,-4.3,2,-4.3,4.4c0,2.3,1.9,4.3,4.3,4.3c2.4,0,4.3,-2,4.3,-4.3Z" class="g4_1" />
<path d="M151.1,156.2l36.1,-20.8" class="g5_1" />
<path d="M182.2,133.3c1,1.2,4.8,1.9,5.7,1.7c-.6,.6,-2,4.2,-1.4,5.8" class="g6_1" />
<path d="M226.1,156.2l-36,-20.8" class="g7_1" />
<path d="M190.7,140.8c.6,-1.6,-.8,-5.2,-1.3,-5.8c.8,.2,4.6,-.5,5.6,-1.7" class="g8_1" />
<path d="M151.1,156.2L115,135.4" class="g7_1" />
<path d="M115.7,140.8c.6,-1.6,-.8,-5.2,-1.4,-5.8c.9,.2,4.7,-.5,5.7,-1.7" class="g8_1" />
<path d="M188.6,91.2v41.7" class="g9_1" />
<path d="M192.9,129.7c-1.6,.2,-4,3.2,-4.3,4c-.3,-.8,-2.7,-3.8,-4.3,-4" class="g10_1" />
<path d="M192.9,91.2c0,-2.3,-1.9,-4.3,-4.3,-4.3c-2.4,0,-4.3,2,-4.3,4.3c0,2.4,1.9,4.4,4.3,4.4c2.4,0,4.3,-2,4.3,-4.4Z" class="g3_1" />
<path d="M230.4,69.6c0,-2.4,-1.9,-4.3,-4.3,-4.3c-2.4,0,-4.3,1.9,-4.3,4.3c0,2.4,1.9,4.3,4.3,4.3c2.4,0,4.3,-1.9,4.3,-4.3Z" class="g4_1" />
<path d="M188.6,91.2L224.7,70.4" class="g5_1" />
<path d="M219.7,68.3c1,1.3,4.8,1.9,5.7,1.7c-.6,.7,-2,4.3,-1.4,5.8" class="g6_1" />
<path d="M263.6,91.2l-36,-20.8" class="g7_1" />
<path d="M228.2,75.8c.6,-1.5,-.8,-5.1,-1.3,-5.8c.8,.2,4.6,-.4,5.6,-1.7" class="g8_1" />
<path d="M188.6,91.2l-36,-20.8" class="g7_1" />
<path d="M153.2,75.8c.6,-1.5,-.8,-5.1,-1.3,-5.8c.8,.2,4.6,-.4,5.6,-1.7" class="g8_1" />
<path d="M226.1,26.3V67.9" class="g9_1" />
<path d="M230.4,64.7c-1.6,.3,-4,3.2,-4.3,4c-.3,-.8,-2.7,-3.7,-4.3,-4" class="g10_1" />
<path d="M226.1,26.3L262.2,5.5" class="g5_1" />
<path d="M257.2,3.4c1,1.2,4.8,1.8,5.7,1.7c-.6,.6,-2,4.2,-1.4,5.7" class="g6_1" />
<path d="M301.1,26.3L265.1,5.5" class="g7_1" />
<path d="M265.7,10.8c.6,-1.5,-.8,-5.1,-1.3,-5.7c.8,.1,4.6,-.5,5.6,-1.7" class="g8_1" />
<path d="M226.1,26.3L190.1,5.5" class="g7_1" />
<path d="M190.7,10.8c.6,-1.5,-.8,-5.1,-1.3,-5.7c.8,.1,4.6,-.5,5.6,-1.7" class="g8_1" />
<path d="M76.1,227.7h75L301.1,.3h-75L76.1,227.7" class="g11_1" />

</svg>
