<?xml version="1.0" encoding="UTF-8" standalone="no"?>
<!-- Page 1 -->

<svg
   xmlns:dc="http://purl.org/dc/elements/1.1/"
   xmlns:cc="http://creativecommons.org/ns#"
   xmlns:rdf="http://www.w3.org/1999/02/22-rdf-syntax-ns#"
   xmlns:svg="http://www.w3.org/2000/svg"
   xmlns="http://www.w3.org/2000/svg"
   xmlns:sodipodi="http://sodipodi.sourceforge.net/DTD/sodipodi-0.dtd"
   xmlns:inkscape="http://www.inkscape.org/namespaces/inkscape"
   x="0"
   y="0"
   width="305.70441"
   height="200.3"
   viewBox="0 0 305.70441 200.3"
   version="1.1"
   style="display:block"
   id="svg2"
   inkscape:version="0.91 r13725"
   sodipodi:docname="1.svg">
  <metadata
     id="metadata140">
    <rdf:RDF>
      <cc:Work
         rdf:about="">
        <dc:format>image/svg+xml</dc:format>
        <dc:type
           rdf:resource="http://purl.org/dc/dcmitype/StillImage" />
        <dc:title></dc:title>
      </cc:Work>
    </rdf:RDF>
  </metadata>
  <sodipodi:namedview
     pagecolor="#ffffff"
     bordercolor="#666666"
     borderopacity="1"
     objecttolerance="10"
     gridtolerance="10"
     guidetolerance="10"
     inkscape:pageopacity="0"
     inkscape:pageshadow="2"
     inkscape:window-width="2568"
     inkscape:window-height="1407"
     id="namedview138"
     showgrid="false"
     fit-margin-top="0"
     fit-margin-left="0"
     fit-margin-right="0"
     fit-margin-bottom="0"
     inkscape:zoom="2.5409476"
     inkscape:cx="-41.742701"
     inkscape:cy="100.3"
     inkscape:window-x="0"
     inkscape:window-y="0"
     inkscape:window-maximized="0"
     inkscape:current-layer="svg2" />
  <defs
     id="defs4">
    <style
       type="text/css"
       id="style6"><![CDATA[

.g0_1{
fill: none;
stroke: #268BD2;
stroke-width: 2.1653347;
stroke-linecap: butt;
stroke-linejoin: miter;
}
.g1_1{
fill: #073642;
}
.g2_1{
fill: none;
stroke: #073642;
stroke-width: 0.6088194;
stroke-linecap: butt;
stroke-linejoin: miter;
}
.g3_1{
fill: none;
stroke: #2AA198;
stroke-width: 2.1653347;
stroke-linecap: butt;
stroke-linejoin: miter;
}
.g4_1{
fill: none;
stroke: #2AA198;
stroke-width: 1.5049449;
stroke-linecap: round;
stroke-linejoin: round;
}
.g5_1{
fill: none;
stroke: #2AA198;
stroke-width: 1.7322708;
stroke-linecap: round;
stroke-linejoin: round;
}
.g6_1{
fill: none;
stroke: #D33682;
stroke-width: 4.3307304;
stroke-linecap: butt;
stroke-linejoin: miter;
}
.g7_1{
fill: none;
stroke: #D33682;
stroke-width: 3.4645875;
stroke-linecap: round;
stroke-linejoin: round;
}
.g8_1{
fill: none;
stroke: #D33682;
stroke-width: 1.7376987;
stroke-linecap: round;
stroke-linejoin: round;
}
.g9_1{
fill: none;
stroke: #6C71C4;
stroke-width: 4.3307304;
stroke-linecap: butt;
stroke-linejoin: miter;
}
.g10_1{
fill: none;
stroke: #6C71C4;
stroke-width: 3.4645875;
stroke-linecap: round;
stroke-linejoin: round;
}
.g11_1{
fill: none;
stroke: #6C71C4;
stroke-width: 1.7376987;
stroke-linecap: round;
stroke-linejoin: round;
}

.s1_1{
font-size: 7.61px;
font-family: CMMI5_7;
fill: #2AA198;
}
.s2_1{
font-size: 7.61px;
font-family: CMR5_8;
fill: #2AA198;
}
.s3_1{
font-size: 7.61px;
font-family: CMMI5_7;
fill: #D33682;
}
.s4_1{
font-size: 7.61px;
font-family: CMR5_8;
fill: #D33682;
}
.s5_1{
font-size: 7.61px;
font-family: CMMI5_7;
fill: #6C71C4;
}
.s6_1{
font-size: 7.61px;
font-family: CMR5_8;
fill: #6C71C4;
}

]]></style>
  </defs>
  <path
     d="m 0,0 0,200 305,0 0,-200 z"
     id="path8"
     inkscape:connector-curvature="0"
     style="fill:#ffffff;stroke:none" />
  <path
     d="M 38.6,196 76.1,174.3 M 38.6,196 1.1,174.3 m 75,0 0,-43.3"
     class="g0_1"
     id="path10"
     inkscape:connector-curvature="0"
     style="fill:none;stroke:#268bd2;stroke-width:2.1653347;stroke-linecap:butt;stroke-linejoin:miter" />
  <path
     d="m 42.9,196 c 0,-2.4 -1.9,-4.4 -4.3,-4.4 -2.4,0 -4.3,2 -4.3,4.4 0,2.4 1.9,4.3 4.3,4.3 2.4,0 4.3,-1.9 4.3,-4.3 z"
     class="g1_1"
     id="path12"
     inkscape:connector-curvature="0"
     style="fill:#073642" />
  <path
     d="m 80.4,174.3 c 0,-2.4 -1.9,-4.3 -4.3,-4.3 -2.4,0 -4.3,1.9 -4.3,4.3 0,2.4 1.9,4.3 4.3,4.3 2.4,0 4.3,-1.9 4.3,-4.3 z"
     class="g2_1"
     id="path14"
     inkscape:connector-curvature="0"
     style="fill:none;stroke:#073642;stroke-width:0.60881943;stroke-linecap:butt;stroke-linejoin:miter" />
  <path
     d="m 76.1,131 37.5,-21.7 M 76.1,131 38.6,109.3 m 75,0 0,-43.3"
     class="g0_1"
     id="path16"
     inkscape:connector-curvature="0"
     style="fill:none;stroke:#268bd2;stroke-width:2.1653347;stroke-linecap:butt;stroke-linejoin:miter" />
  <path
     d="m 80.4,131 c 0,-2.4 -1.9,-4.3 -4.3,-4.3 -2.4,0 -4.3,1.9 -4.3,4.3 0,2.4 1.9,4.3 4.3,4.3 2.4,0 4.3,-1.9 4.3,-4.3 z"
     class="g1_1"
     id="path18"
     inkscape:connector-curvature="0"
     style="fill:#073642" />
  <path
     d="m 117.9,109.3 c 0,-2.3 -1.9,-4.3 -4.3,-4.3 -2.4,0 -4.3,2 -4.3,4.3 0,2.4 1.9,4.4 4.3,4.4 2.4,0 4.3,-2 4.3,-4.4 z"
     class="g2_1"
     id="path20"
     inkscape:connector-curvature="0"
     style="fill:none;stroke:#073642;stroke-width:0.60881943;stroke-linecap:butt;stroke-linejoin:miter" />
  <path
     d="M 113.6,66 151.1,44.4 M 113.6,66 76.1,44.4 m 75,0 0,-43.3"
     class="g0_1"
     id="path22"
     inkscape:connector-curvature="0"
     style="fill:none;stroke:#268bd2;stroke-width:2.1653347;stroke-linecap:butt;stroke-linejoin:miter" />
  <path
     d="m 117.9,66 c 0,-2.4 -1.9,-4.3 -4.3,-4.3 -2.4,0 -4.3,1.9 -4.3,4.3 0,2.4 1.9,4.4 4.3,4.4 2.4,0 4.3,-2 4.3,-4.4 z"
     class="g1_1"
     id="path24"
     inkscape:connector-curvature="0"
     style="fill:#073642" />
  <path
     d="m 155.4,44.4 c 0,-2.4 -1.9,-4.3 -4.3,-4.3 -2.4,0 -4.3,1.9 -4.3,4.3 0,2.4 1.9,4.3 4.3,4.3 2.4,0 4.3,-1.9 4.3,-4.3 z"
     class="g2_1"
     id="path26"
     inkscape:connector-curvature="0"
     style="fill:none;stroke:#073642;stroke-width:0.60881943;stroke-linecap:butt;stroke-linejoin:miter" />
  <path
     d="m 113.6,196 37.5,-21.7 M 113.6,196 76.1,174.3 m 75,0 0,-43.3"
     class="g0_1"
     id="path28"
     inkscape:connector-curvature="0"
     style="fill:none;stroke:#268bd2;stroke-width:2.1653347;stroke-linecap:butt;stroke-linejoin:miter" />
  <path
     d="m 117.9,196 c 0,-2.4 -1.9,-4.4 -4.3,-4.4 -2.4,0 -4.3,2 -4.3,4.4 0,2.4 1.9,4.3 4.3,4.3 2.4,0 4.3,-1.9 4.3,-4.3 z"
     class="g1_1"
     id="path30"
     inkscape:connector-curvature="0"
     style="fill:#073642" />
  <path
     d="m 155.4,174.3 c 0,-2.4 -1.9,-4.3 -4.3,-4.3 -2.4,0 -4.3,1.9 -4.3,4.3 0,2.4 1.9,4.3 4.3,4.3 2.4,0 4.3,-1.9 4.3,-4.3 z"
     class="g2_1"
     id="path32"
     inkscape:connector-curvature="0"
     style="fill:none;stroke:#073642;stroke-width:0.60881943;stroke-linecap:butt;stroke-linejoin:miter" />
  <path
     d="m 151.1,131 37.5,-21.7 M 151.1,131 113.6,109.3 m 75,0 0,-43.3"
     class="g0_1"
     id="path34"
     inkscape:connector-curvature="0"
     style="fill:none;stroke:#268bd2;stroke-width:2.1653347;stroke-linecap:butt;stroke-linejoin:miter" />
  <path
     d="m 155.4,131 c 0,-2.4 -1.9,-4.3 -4.3,-4.3 -2.4,0 -4.3,1.9 -4.3,4.3 0,2.4 1.9,4.3 4.3,4.3 2.4,0 4.3,-1.9 4.3,-4.3 z"
     class="g1_1"
     id="path36"
     inkscape:connector-curvature="0"
     style="fill:#073642" />
  <path
     d="m 192.9,109.3 c 0,-2.3 -1.9,-4.3 -4.3,-4.3 -2.4,0 -4.3,2 -4.3,4.3 0,2.4 1.9,4.4 4.3,4.4 2.4,0 4.3,-2 4.3,-4.4 z"
     class="g2_1"
     id="path38"
     inkscape:connector-curvature="0"
     style="fill:none;stroke:#073642;stroke-width:0.60881943;stroke-linecap:butt;stroke-linejoin:miter" />
  <path
     d="M 188.6,66 226.1,44.4 M 188.6,66 151.1,44.4 m 75,0 0,-43.3"
     class="g0_1"
     id="path40"
     inkscape:connector-curvature="0"
     style="fill:none;stroke:#268bd2;stroke-width:2.1653347;stroke-linecap:butt;stroke-linejoin:miter" />
  <path
     d="m 192.9,66 c 0,-2.4 -1.9,-4.3 -4.3,-4.3 -2.4,0 -4.3,1.9 -4.3,4.3 0,2.4 1.9,4.4 4.3,4.4 2.4,0 4.3,-2 4.3,-4.4 z"
     class="g1_1"
     id="path42"
     inkscape:connector-curvature="0"
     style="fill:#073642" />
  <path
     d="m 230.4,44.4 c 0,-2.4 -1.9,-4.3 -4.3,-4.3 -2.4,0 -4.3,1.9 -4.3,4.3 0,2.4 1.9,4.3 4.3,4.3 2.4,0 4.3,-1.9 4.3,-4.3 z"
     class="g2_1"
     id="path44"
     inkscape:connector-curvature="0"
     style="fill:none;stroke:#073642;stroke-width:0.60881943;stroke-linecap:butt;stroke-linejoin:miter" />
  <path
     d="m 188.6,196 37.5,-21.7 M 188.6,196 151.1,174.3 m 75,0 0,-43.3"
     class="g0_1"
     id="path46"
     inkscape:connector-curvature="0"
     style="fill:none;stroke:#268bd2;stroke-width:2.1653347;stroke-linecap:butt;stroke-linejoin:miter" />
  <path
     d="m 192.9,196 c 0,-2.4 -1.9,-4.4 -4.3,-4.4 -2.4,0 -4.3,2 -4.3,4.4 0,2.4 1.9,4.3 4.3,4.3 2.4,0 4.3,-1.9 4.3,-4.3 z"
     class="g1_1"
     id="path48"
     inkscape:connector-curvature="0"
     style="fill:#073642" />
  <path
     d="m 230.4,174.3 c 0,-2.4 -1.9,-4.3 -4.3,-4.3 -2.4,0 -4.3,1.9 -4.3,4.3 0,2.4 1.9,4.3 4.3,4.3 2.4,0 4.3,-1.9 4.3,-4.3 z"
     class="g2_1"
     id="path50"
     inkscape:connector-curvature="0"
     style="fill:none;stroke:#073642;stroke-width:0.60881943;stroke-linecap:butt;stroke-linejoin:miter" />
  <path
     d="m 226.1,131 37.5,-21.7 M 226.1,131 188.6,109.3 m 75,0 0,-43.3"
     class="g0_1"
     id="path52"
     inkscape:connector-curvature="0"
     style="fill:none;stroke:#268bd2;stroke-width:2.1653347;stroke-linecap:butt;stroke-linejoin:miter" />
  <path
     d="m 230.4,131 c 0,-2.4 -1.9,-4.3 -4.3,-4.3 -2.4,0 -4.3,1.9 -4.3,4.3 0,2.4 1.9,4.3 4.3,4.3 2.4,0 4.3,-1.9 4.3,-4.3 z"
     class="g1_1"
     id="path54"
     inkscape:connector-curvature="0"
     style="fill:#073642" />
  <path
     d="m 267.9,109.3 c 0,-2.3 -1.9,-4.3 -4.3,-4.3 -2.4,0 -4.3,2 -4.3,4.3 0,2.4 1.9,4.4 4.3,4.4 2.4,0 4.3,-2 4.3,-4.4 z"
     class="g2_1"
     id="path56"
     inkscape:connector-curvature="0"
     style="fill:none;stroke:#073642;stroke-width:0.60881943;stroke-linecap:butt;stroke-linejoin:miter" />
  <path
     d="M 263.6,66 301.1,44.4 M 263.6,66 226.1,44.4 m 75,0 0,-43.3"
     class="g0_1"
     id="path58"
     inkscape:connector-curvature="0"
     style="fill:none;stroke:#268bd2;stroke-width:2.1653347;stroke-linecap:butt;stroke-linejoin:miter" />
  <path
     d="m 267.9,66 c 0,-2.4 -1.9,-4.3 -4.3,-4.3 -2.4,0 -4.3,1.9 -4.3,4.3 0,2.4 1.9,4.4 4.3,4.4 2.4,0 4.3,-2 4.3,-4.4 z"
     class="g1_1"
     id="path60"
     inkscape:connector-curvature="0"
     style="fill:#073642" />
  <path
     d="m 305.4,44.4 c 0,-2.4 -1.9,-4.3 -4.3,-4.3 -2.4,0 -4.3,1.9 -4.3,4.3 0,2.4 1.9,4.3 4.3,4.3 2.4,0 4.3,-1.9 4.3,-4.3 z"
     class="g2_1"
     id="path62"
     inkscape:connector-curvature="0"
     style="fill:none;stroke:#073642;stroke-width:0.60881943;stroke-linecap:butt;stroke-linejoin:miter" />
  <path
     d="m 151.1,131 36.1,-20.8"
     class="g3_1"
     id="path64"
     inkscape:connector-curvature="0"
     style="fill:none;stroke:#2aa198;stroke-width:2.1653347;stroke-linecap:butt;stroke-linejoin:miter" />
  <path
     d="m 182.2,108.1 c 1,1.2 4.8,1.9 5.7,1.7 -0.6,0.6 -2,4.2 -1.4,5.7"
     class="g4_1"
     id="path66"
     inkscape:connector-curvature="0"
     style="fill:none;stroke:#2aa198;stroke-width:1.50494492;stroke-linecap:round;stroke-linejoin:round" />
  <text
     x="159"
     y="131"
     class="s1_1"
     id="text68"
     style="font-size:7.61000013px;font-family:CMMI5_7;fill:#2aa198">δ</text>
  <text
     x="164"
     y="133"
     class="s2_1"
     id="text70"
     style="font-size:7.61000013px;font-family:CMR5_8;fill:#2aa198">2</text>
  <path
     d="M 151.1,131 115,110.2"
     class="g3_1"
     id="path72"
     inkscape:connector-curvature="0"
     style="fill:none;stroke:#2aa198;stroke-width:2.1653347;stroke-linecap:butt;stroke-linejoin:miter" />
  <path
     d="m 115.7,115.5 c 0.6,-1.5 -0.8,-5.1 -1.4,-5.7 0.9,0.2 4.7,-0.5 5.7,-1.7"
     class="g4_1"
     id="path74"
     inkscape:connector-curvature="0"
     style="fill:none;stroke:#2aa198;stroke-width:1.50494492;stroke-linecap:round;stroke-linejoin:round" />
  <text
     x="132"
     y="118"
     class="s1_1"
     id="text76"
     style="font-size:7.61000013px;font-family:CMMI5_7;fill:#2aa198">δ</text>
  <text
     x="137"
     y="120"
     class="s2_1"
     id="text78"
     style="font-size:7.61000013px;font-family:CMR5_8;fill:#2aa198">3</text>
  <path
     d="m 151.1,131 0,41.6"
     class="g3_1"
     id="path80"
     inkscape:connector-curvature="0"
     style="fill:none;stroke:#2aa198;stroke-width:2.1653347;stroke-linecap:butt;stroke-linejoin:miter" />
  <path
     d="m 155.4,169.4 c -1.6,0.3 -4,3.2 -4.3,4 -0.3,-0.8 -2.7,-3.7 -4.3,-4"
     class="g5_1"
     id="path82"
     inkscape:connector-curvature="0"
     style="fill:none;stroke:#2aa198;stroke-width:1.73227084;stroke-linecap:round;stroke-linejoin:round" />
  <text
     x="140"
     y="154"
     class="s1_1"
     id="text84"
     style="font-size:7.61000013px;font-family:CMMI5_7;fill:#2aa198">δ</text>
  <text
     x="145"
     y="156"
     class="s2_1"
     id="text86"
     style="font-size:7.61000013px;font-family:CMR5_8;fill:#2aa198">1</text>
  <path
     d="m 113.6,109.3 72,0"
     class="g6_1"
     id="path88"
     inkscape:connector-curvature="0"
     style="fill:none;stroke:#d33682;stroke-width:4.33073044;stroke-linecap:butt;stroke-linejoin:miter" />
  <path
     d="m 180.4,102.4 c 0.4,2.6 5.2,6.5 6.5,6.9 -1.3,0.5 -6.1,4.4 -6.5,6.9"
     class="g7_1"
     id="path90"
     inkscape:connector-curvature="0"
     style="fill:none;stroke:#d33682;stroke-width:3.46458745;stroke-linecap:round;stroke-linejoin:round" />
  <text
     x="140"
     y="99"
     class="s3_1"
     id="text92"
     style="font-size:7.61000013px;font-family:CMMI5_7;fill:#d33682">d</text>
  <text
     x="145"
     y="102"
     class="s4_1"
     id="text94"
     style="font-size:7.61000013px;font-family:CMR5_8;fill:#d33682">1</text>
  <path
     d="M 151.1,174.3 115.1,112"
     class="g6_1"
     id="path96"
     inkscape:connector-curvature="0"
     style="fill:none;stroke:#d33682;stroke-width:4.33073044;stroke-linecap:butt;stroke-linejoin:miter" />
  <path
     d="m 111.7,119.9 c 2,-1.6 3,-7.7 2.8,-9 1,0.9 6.7,3 9.2,2.1"
     class="g8_1"
     id="path98"
     inkscape:connector-curvature="0"
     style="fill:none;stroke:#d33682;stroke-width:1.73769867;stroke-linecap:round;stroke-linejoin:round" />
  <text
     x="121"
     y="154"
     class="s3_1"
     id="text100"
     style="font-size:7.61000013px;font-family:CMMI5_7;fill:#d33682">d</text>
  <text
     x="127"
     y="156"
     class="s4_1"
     id="text102"
     style="font-size:7.61000013px;font-family:CMR5_8;fill:#d33682">2</text>
  <path
     d="m 188.6,109.3 -36,62.4"
     class="g6_1"
     id="path104"
     inkscape:connector-curvature="0"
     style="fill:none;stroke:#d33682;stroke-width:4.33073044;stroke-linecap:butt;stroke-linejoin:miter" />
  <path
     d="m 161.2,170.6 c -2.5,-0.9 -8.2,1.3 -9.2,2.2 0.2,-1.3 -0.7,-7.4 -2.8,-9.1"
     class="g8_1"
     id="path106"
     inkscape:connector-curvature="0"
     style="fill:none;stroke:#d33682;stroke-width:1.73769867;stroke-linecap:round;stroke-linejoin:round" />
  <text
     x="151"
     y="145"
     class="s3_1"
     id="text108"
     style="font-size:7.61000013px;font-family:CMMI5_7;fill:#d33682">d</text>
  <text
     x="157"
     y="147"
     class="s4_1"
     id="text110"
     style="font-size:7.61000013px;font-family:CMR5_8;fill:#d33682">3</text>
  <path
     d="m 188.6,66 72,0"
     class="g9_1"
     id="path112"
     inkscape:connector-curvature="0"
     style="fill:none;stroke:#6c71c4;stroke-width:4.33073044;stroke-linecap:butt;stroke-linejoin:miter" />
  <path
     d="m 255.4,59.1 c 0.4,2.6 5.2,6.5 6.5,6.9 -1.3,0.5 -6.1,4.4 -6.5,6.9"
     class="g10_1"
     id="path114"
     inkscape:connector-curvature="0"
     style="fill:none;stroke:#6c71c4;stroke-width:3.46458745;stroke-linecap:round;stroke-linejoin:round" />
  <text
     x="215"
     y="56"
     class="s5_1"
     id="text116"
     style="font-size:7.61000013px;font-family:CMMI5_7;fill:#6c71c4">d</text>
  <text
     x="220"
     y="58"
     class="s6_1"
     id="text118"
     style="font-size:7.61000013px;font-family:CMR5_8;fill:#6c71c4">1</text>
  <path
     d="m 226.1,131 -36,-62.3"
     class="g9_1"
     id="path120"
     inkscape:connector-curvature="0"
     style="fill:none;stroke:#6c71c4;stroke-width:4.33073044;stroke-linecap:butt;stroke-linejoin:miter" />
  <path
     d="m 186.7,76.6 c 2.1,-1.6 3,-7.7 2.8,-9.1 1,1 6.7,3.1 9.2,2.2"
     class="g11_1"
     id="path122"
     inkscape:connector-curvature="0"
     style="fill:none;stroke:#6c71c4;stroke-width:1.73769867;stroke-linecap:round;stroke-linejoin:round" />
  <text
     x="196"
     y="111"
     class="s5_1"
     id="text124"
     style="font-size:7.61000013px;font-family:CMMI5_7;fill:#6c71c4">d</text>
  <text
     x="202"
     y="113"
     class="s6_1"
     id="text126"
     style="font-size:7.61000013px;font-family:CMR5_8;fill:#6c71c4">2</text>
  <path
     d="m 263.6,66 -36,62.4"
     class="g9_1"
     id="path128"
     inkscape:connector-curvature="0"
     style="fill:none;stroke:#6c71c4;stroke-width:4.33073044;stroke-linecap:butt;stroke-linejoin:miter" />
  <path
     d="m 236.2,127.3 c -2.4,-0.9 -8.2,1.3 -9.2,2.2 0.3,-1.3 -0.7,-7.4 -2.8,-9.1"
     class="g11_1"
     id="path130"
     inkscape:connector-curvature="0"
     style="fill:none;stroke:#6c71c4;stroke-width:1.73769867;stroke-linecap:round;stroke-linejoin:round" />
  <text
     x="234"
     y="89"
     class="s5_1"
     id="text132"
     style="font-size:7.61000013px;font-family:CMMI5_7;fill:#6c71c4">d</text>
  <text
     x="239"
     y="91"
     class="s6_1"
     id="text134"
     style="font-size:7.61000013px;font-family:CMR5_8;fill:#6c71c4">3</text>
  <!-- Any embedded fonts defined here -->
  <style
     type="text/css"
     id="style136"><![CDATA[

@font-face {
	font-family: CMR5_8;
	src: url("fonts/CMR5_8.woff") format("woff");
}

@font-face {
	font-family: CMMI5_7;
	src: url("fonts/CMMI5_7.woff") format("woff");
}

]]></style>
</svg>
